<svg width="297" height="336" viewBox="0 0 297 336" fill="none" xmlns="http://www.w3.org/2000/svg">
<rect x="226" y="153" width="44" height="17" fill="white"/>
<rect x="226" y="175" width="44" height="8" fill="white"/>
<path fill-rule="evenodd" clip-rule="evenodd" d="M211 194.028V141.972C211 106.527 182.681 78 148 78C113.319 78 85 106.527 85 141.972V194.028C85 229.473 113.319 258 148 258C182.681 258 211 229.473 211 194.028ZM148 69C108.236 69 76 101.671 76 141.972V194.028C76 234.329 108.236 267 148 267C187.765 267 220 234.329 220 194.028V141.972C220 101.671 187.765 69 148 69Z" fill="white"/>
<path fill-rule="evenodd" clip-rule="evenodd" d="M222 196.5V140.5C222 99.9071 189.093 67 148.5 67C107.907 67 75 99.9071 75 140.5V196.5C75 237.093 107.907 270 148.5 270C189.093 270 222 237.093 222 196.5ZM148.5 62C105.146 62 70 97.1456 70 140.5V196.5C70 239.854 105.146 275 148.5 275C191.854 275 227 239.854 227 196.5V140.5C227 97.1456 191.854 62 148.5 62Z" fill="white"/>
<rect x="27" y="153" width="44" height="17" fill="white"/>
<rect x="27" y="175" width="44" height="8" fill="white"/>
<path d="M52.1814 132.637L52.0259 136.228C52.0214 136.332 51.9671 136.382 51.863 136.377L29.9014 135.375C29.8182 135.372 29.7784 135.328 29.782 135.245L30.0484 129.094C30.1331 127.138 30.7985 125.618 32.0444 124.535C33.2804 123.441 34.9235 122.938 36.9737 123.025C38.4724 123.09 39.7656 123.442 40.8535 124.083C41.9305 124.734 42.7501 125.551 43.3122 126.534C43.8744 127.517 44.1311 128.571 44.0824 129.695L43.9769 132.13L52.0321 132.475C52.1361 132.479 52.1859 132.533 52.1814 132.637ZM33.8418 129.257L33.7675 131.693L40.1055 131.964L40.2109 129.529C40.2402 128.853 39.9431 128.251 39.3195 127.724C38.6855 127.196 37.8481 126.91 36.8074 126.866C35.9748 126.83 35.2835 127.025 34.7333 127.449C34.1728 127.874 33.8756 128.476 33.8418 129.257Z" fill="white"/>
<path d="M54.4802 113.342L53.5734 116.852C53.5525 116.933 53.4916 116.96 53.3907 116.934L32.1046 111.438C32.0239 111.417 31.9939 111.367 32.0148 111.286L33.6331 105.023C33.9223 103.904 34.4607 102.944 35.248 102.146C36.0354 101.347 36.96 100.787 38.0218 100.467C39.0862 100.136 40.1988 100.119 41.3595 100.415C42.1165 100.609 42.7729 100.9 43.3286 101.289C43.8844 101.678 44.3338 102.083 44.677 102.504C45.0227 102.914 45.2639 103.272 45.4006 103.575C46.9314 102.773 48.5345 102.585 50.2099 103.013L56.5765 104.605C56.6774 104.631 56.7148 104.694 56.6888 104.795L55.7819 108.305C55.7611 108.385 55.7204 108.418 55.6598 108.403L49.2405 106.764C48.4936 106.574 47.7799 106.671 47.0994 107.057C46.4188 107.442 45.9795 108.018 45.7815 108.784L45.2538 110.827L54.3601 113.183C54.4611 113.208 54.5011 113.262 54.4802 113.342ZM37.3423 105.97L36.6544 108.632L41.5294 109.876L42.2173 107.214C42.3815 106.578 42.2903 105.953 41.9436 105.338C41.5995 104.712 41.0843 104.312 40.3979 104.137C39.7419 103.97 39.1141 104.067 38.5147 104.43C37.9051 104.791 37.5143 105.304 37.3423 105.97Z" fill="white"/>
<path d="M61.0178 94.2889L59.5495 97.6032C59.5073 97.6985 59.4384 97.7252 59.343 97.6835L39.215 88.8421C39.1386 88.8087 39.1173 88.7539 39.1511 88.6777L40.6068 85.392C40.6405 85.3158 40.6956 85.2944 40.7719 85.3278L60.9253 94.112C61.0207 94.1538 61.0516 94.2127 61.0178 94.2889Z" fill="white"/>
<path d="M66.174 84.6075L64.1596 87.6213C64.1133 87.6906 64.0467 87.6965 63.9598 87.6392L45.6471 75.4758C45.5776 75.4299 45.566 75.3723 45.6123 75.303L47.7829 72.0554C47.8292 71.9861 47.9045 71.9484 48.0088 71.9424L53.1533 71.8373L51.2474 67.0969C51.2126 66.9991 51.2213 66.9112 51.2734 66.8332L53.4527 63.5726C53.5048 63.4947 53.5656 63.4787 53.6352 63.5246L72.0173 75.584C72.1042 75.6414 72.1245 75.7047 72.0782 75.774L70.0638 78.7878C70.0175 78.8571 69.9509 78.863 69.864 78.8056L56.2197 69.8363L58.4215 75.3149L52.5036 75.3962L66.1131 84.4175C66.2 84.4749 66.2203 84.5382 66.174 84.6075Z" fill="white"/>
<path d="M84.4571 62.8638L77.053 70.087C76.9934 70.1452 76.927 70.1372 76.8538 70.0631L61.4266 54.4008C61.3681 54.3415 61.3686 54.2827 61.4282 54.2246L68.7875 47.0451C68.8472 46.9869 68.9136 46.9948 68.9868 47.0689L71.5013 49.6145C71.5599 49.6738 71.5594 49.7326 71.4997 49.7908L66.8023 54.3734L70.316 57.9306L75.0135 53.348C75.0731 53.2898 75.1322 53.2903 75.1908 53.3496L77.7606 55.9067C77.8192 55.966 77.8186 56.0248 77.759 56.0829L73.0392 60.6874L76.9702 64.667L81.69 60.0625C81.7496 60.0044 81.8161 60.0123 81.8893 60.0864L84.4587 62.6876C84.5173 62.7469 84.5167 62.8056 84.4571 62.8638Z" fill="white"/>
<path d="M95.3519 55.1428C94.3829 55.7737 93.3364 56.1072 92.2122 56.1431C91.0968 56.1734 90.0339 55.9333 89.0235 55.4228C88.0161 54.8979 87.1799 54.131 86.5147 53.1223L81.0449 44.7697C80.3912 43.7783 80.0275 42.7348 79.9539 41.6391C79.8746 40.5347 80.0715 39.4804 80.5447 38.4762C81.021 37.4575 81.7479 36.6299 82.7256 35.9932C83.7207 35.3452 84.7643 35.0074 85.8566 34.9798C86.9576 34.9465 88.0089 35.188 89.0105 35.7042C90.0152 36.206 90.8472 36.9569 91.5066 37.957L92.3151 39.1832C92.361 39.2528 92.349 39.3103 92.2791 39.3558L89.2676 41.3169C89.1978 41.3624 89.14 41.3503 89.0941 41.2807L88.2856 40.0545C87.8957 39.4632 87.3682 39.0795 86.7031 38.9035C86.0381 38.7275 85.4175 38.827 84.8414 39.2022C84.2042 39.6172 83.8587 40.1529 83.805 40.8094C83.7513 41.4659 83.9136 42.0811 84.2921 42.6551L89.7881 50.9906C90.2182 51.6429 90.7628 52.0526 91.4222 52.22C92.0757 52.3786 92.6775 52.2788 93.2274 51.9207C93.8035 51.5456 94.1345 51.0068 94.2204 50.3045C94.3006 49.5935 94.1544 48.9553 93.7816 48.3901L92.9645 47.1508C92.9187 47.0813 92.9307 47.0237 93.0005 46.9783L96.0382 45.0001C96.108 44.9547 96.1659 44.9667 96.2117 45.0363L97.0288 46.2755C97.6882 47.2756 98.0546 48.3422 98.128 49.4753C98.1869 50.6054 97.987 51.6741 97.5282 52.6814C97.0637 53.68 96.3382 54.5004 95.3519 55.1428Z" fill="white"/>
<path d="M112.604 46.1944C111.546 46.6089 110.464 46.72 109.357 46.5277C108.259 46.3315 107.26 45.8898 106.359 45.2023C105.465 44.5014 104.802 43.6088 104.372 42.5245L100.659 33.0881C100.22 31.9844 100.093 30.8875 100.277 29.7974C100.447 28.7013 100.872 27.7121 101.553 26.8298C102.23 25.9378 103.092 25.2864 104.139 24.8757C105.225 24.4498 106.306 24.3339 107.38 24.5279C108.465 24.7182 109.447 25.1608 110.328 25.8558C111.215 26.5374 111.876 27.4252 112.31 28.5192L116.082 37.9327C116.512 39.017 116.644 40.1121 116.478 41.2178C116.306 42.337 115.886 43.3407 115.219 44.2289C114.552 45.1171 113.68 45.7723 112.604 46.1944ZM111.179 42.6074C111.781 42.3716 112.208 41.9242 112.462 41.2653C112.712 40.5966 112.716 39.9573 112.474 39.3473L108.703 29.9338C108.441 29.2755 108.012 28.8005 107.414 28.509C106.817 28.2175 106.198 28.1972 105.558 28.4482C104.947 28.6878 104.511 29.1158 104.252 29.7323C103.992 30.3487 103.997 30.9958 104.266 31.6735L108.008 41.0985C108.266 41.7471 108.707 42.2231 109.332 42.5264C109.952 42.82 110.568 42.847 111.179 42.6074Z" fill="white"/>
<path d="M131.195 40.5736L125.549 41.5775C125.447 41.5952 125.386 41.5527 125.368 41.4501L121.654 19.7819C121.64 19.6998 121.673 19.6517 121.756 19.6375L127.648 18.5912C128.813 18.3589 129.917 18.4436 130.959 18.8454C132.013 19.2454 132.905 19.8791 133.638 20.7465C134.38 21.6018 134.851 22.6093 135.053 23.7689L136.632 32.8199C136.843 34.0308 136.743 35.1894 136.334 36.2959C135.912 37.3938 135.26 38.3252 134.378 39.0901C133.495 39.8447 132.434 40.3392 131.195 40.5736ZM128.305 22.3624L126.109 22.7724L128.569 37.0622L130.524 36.7254C131.304 36.5911 131.914 36.206 132.353 35.5702C132.792 34.9344 132.945 34.2368 132.813 33.4775L131.229 24.3957C131.113 23.7287 130.766 23.1913 130.187 22.7836C129.606 22.3656 128.979 22.2252 128.305 22.3624Z" fill="white"/>
<path d="M155.2 39.2739L144.859 39.022C144.776 39.02 144.735 38.9669 144.738 38.8628L145.311 16.8858C145.313 16.8025 145.356 16.7619 145.439 16.7639L155.718 17.0143C155.801 17.0164 155.841 17.0694 155.839 17.1736L155.751 20.7506C155.748 20.8339 155.706 20.8746 155.622 20.8725L149.062 20.7127L148.939 25.7112L155.499 25.871C155.582 25.873 155.623 25.9157 155.621 25.999L155.563 29.6237C155.561 29.707 155.518 29.7476 155.435 29.7456L148.843 29.585L148.705 35.177L155.297 35.3376C155.38 35.3397 155.421 35.3927 155.418 35.4969L155.328 39.152C155.326 39.2353 155.283 39.276 155.2 39.2739Z" fill="white"/>
<path d="M173.925 42.245L185.103 22.8848C185.151 22.8134 185.214 22.7916 185.292 22.8195L189.665 24.3722C189.744 24.4001 189.779 24.4567 189.77 24.5421L185.926 46.5058C185.9 46.6073 185.843 46.6424 185.755 46.6111L182.413 45.4243C182.314 45.3894 182.278 45.3213 182.304 45.2198L182.773 42.8992L178.664 41.4406L177.548 43.5311C177.502 43.6257 177.436 43.6573 177.347 43.6259L173.99 42.4339C173.912 42.406 173.89 42.3431 173.925 42.245ZM185.129 30.571L185.354 29.3907L184.82 30.4612L180.426 38.4348L183.326 39.4647L185.129 30.571Z" fill="white"/>
<path d="M196.548 52.5588C195.554 51.9678 194.795 51.1775 194.273 50.188C193.759 49.2037 193.513 48.1484 193.534 47.0221C193.57 45.8921 193.9 44.8096 194.523 43.7744L199.7 35.2368C200.313 34.2194 201.099 33.4387 202.059 32.8946C203.024 32.3415 204.064 32.0573 205.18 32.0421C206.31 32.0232 207.376 32.3119 208.379 32.9082C209.4 33.5152 210.161 34.301 210.662 35.2656C211.172 36.2356 211.412 37.2811 211.382 38.4022C211.366 39.5196 211.048 40.5914 210.431 41.6177L209.673 42.876C209.63 42.9474 209.573 42.9618 209.501 42.9192L206.412 41.0824C206.341 41.0398 206.326 40.9828 206.369 40.9114L207.127 39.6531C207.492 39.0463 207.61 38.4071 207.479 37.7356C207.348 37.064 206.987 36.5526 206.397 36.2012C205.743 35.8125 205.107 35.7375 204.489 35.976C203.872 36.2146 203.385 36.6284 203.031 37.2173L197.881 45.7709C197.478 46.4402 197.344 47.1062 197.48 47.7688C197.622 48.4225 197.974 48.917 198.538 49.2524C199.129 49.6038 199.761 49.6646 200.435 49.4348C201.113 49.1961 201.627 48.7868 201.977 48.2067L202.742 46.935C202.785 46.8636 202.843 46.8492 202.914 46.8918L206.03 48.7446C206.102 48.7872 206.116 48.8442 206.073 48.9156L205.307 50.1873C204.689 51.2135 203.883 52.0068 202.89 52.567C201.892 53.1131 200.837 53.4008 199.725 53.4303C198.619 53.4509 197.559 53.1604 196.548 52.5588Z" fill="white"/>
<path d="M207.347 58.9929L225.097 45.3875C225.168 45.3398 225.235 45.3438 225.297 45.3995L228.748 48.5018C228.81 48.5575 228.821 48.6231 228.78 48.6987L216.818 67.506C216.756 67.59 216.689 67.6006 216.62 67.5379L213.982 65.1668C213.904 65.0972 213.897 65.0204 213.959 64.9364L215.281 62.9733L212.039 60.059L210.206 61.5625C210.128 61.6326 210.054 61.6363 209.985 61.5736L207.335 59.1921C207.273 59.1364 207.277 59.07 207.347 58.9929ZM222.179 52.4925L222.839 51.489L221.935 52.2732L214.819 57.9566L217.108 60.0143L222.179 52.4925Z" fill="white"/>
<path d="M224.593 76.9305L221.132 72.3578C221.07 72.2744 221.08 72.2017 221.164 72.1398L238.882 59.1236C238.949 59.0741 239.007 59.0827 239.057 59.1494L242.668 63.9223C243.404 64.8545 243.829 65.8745 243.943 66.9823C244.062 68.0984 243.9 69.1768 243.456 70.2175C243.026 71.2603 242.338 72.1315 241.391 72.8311L234.003 78.2916C233.014 79.0222 231.932 79.4531 230.755 79.5844C229.58 79.7012 228.451 79.5389 227.366 79.0973C226.289 78.6495 225.365 77.9272 224.593 76.9305ZM239.589 66.1975L238.225 64.4271L226.545 73.02L227.734 74.6088C228.209 75.2427 228.83 75.6124 229.599 75.7179C230.367 75.8235 231.061 75.6472 231.681 75.1891L239.095 69.71C239.64 69.3076 239.963 68.7576 240.066 68.0601C240.177 67.3564 240.018 66.7356 239.589 66.1975Z" fill="white"/>
<path d="M236.654 97.6714L232.194 88.3384C232.158 88.2632 232.187 88.2034 232.282 88.159L252.177 78.8045C252.252 78.7689 252.308 78.7887 252.344 78.8639L256.776 88.1405C256.812 88.2157 256.783 88.2755 256.689 88.32L253.453 89.8471C253.378 89.8827 253.322 89.8628 253.286 89.7877L250.457 83.8664L245.935 86.0004L248.764 91.9216C248.8 91.9968 248.78 92.0522 248.705 92.0877L245.44 93.663C245.365 93.6986 245.309 93.6788 245.273 93.6036L242.431 87.6542L237.372 90.0415L240.215 95.9909C240.251 96.0661 240.221 96.126 240.127 96.1704L236.821 97.7309C236.745 97.7664 236.69 97.7466 236.654 97.6714Z" fill="white"/>
<path d="M240.335 108.29L239.486 104.766C239.466 104.685 239.507 104.632 239.608 104.608L261.01 99.5797C261.091 99.5604 261.142 99.5912 261.161 99.6722L262.076 103.47C262.096 103.551 262.072 103.631 262.006 103.711L258.586 107.529L263.371 109.377C263.467 109.419 263.525 109.485 263.547 109.576L264.466 113.389C264.488 113.48 264.458 113.535 264.377 113.555L243.005 118.705C242.903 118.729 242.843 118.7 242.823 118.619L241.974 115.095C241.955 115.014 241.996 114.962 242.097 114.937L257.974 111.127L252.445 108.99L256.408 104.626L240.516 108.375C240.415 108.399 240.354 108.371 240.335 108.29Z" fill="white"/>
<path d="M243.863 132.642L243.749 128.972C243.747 128.899 243.787 128.861 243.87 128.859L252.961 128.612L265.744 123.938C265.827 123.914 265.869 123.944 265.872 124.028L265.982 127.588C265.986 127.693 265.946 127.756 265.863 127.78L257.331 130.401L266.011 132.543C266.095 132.561 266.138 132.612 266.14 132.695L266.252 136.287C266.254 136.371 266.214 136.403 266.13 136.385L253.205 132.45L243.991 132.763C243.908 132.766 243.865 132.725 243.863 132.642Z" fill="white"/>
<path d="M29.6673 203.746C29.6696 202.842 29.8996 202.017 30.3573 201.269C30.8149 200.529 31.4268 199.941 32.1929 199.503C32.9671 199.073 33.8262 198.859 34.7702 198.861L42.5704 198.901C43.4982 198.903 44.3358 199.116 45.0834 199.541C45.8392 199.965 46.444 200.548 46.8978 201.29C47.3597 202.04 47.5895 202.87 47.5872 203.781C47.5848 204.709 47.3588 205.535 46.9094 206.258C46.4599 206.99 45.8521 207.57 45.086 208C44.3281 208.438 43.4811 208.656 42.5453 208.654L41.3978 208.652C41.3327 208.652 41.3002 208.619 41.3004 208.554L41.3077 205.746C41.3078 205.681 41.3405 205.649 41.4056 205.649L42.553 205.651C43.1064 205.652 43.5829 205.474 43.9826 205.117C44.3823 204.76 44.5828 204.313 44.5842 203.775C44.5858 203.181 44.3835 202.725 43.9774 202.407C43.5713 202.089 43.0997 201.929 42.5626 201.928L34.7623 201.913C34.152 201.911 33.6511 202.089 33.2595 202.447C32.8761 202.804 32.6837 203.239 32.6824 203.752C32.681 204.289 32.8914 204.737 33.3137 205.096C33.7441 205.455 34.2238 205.635 34.7527 205.636L35.9124 205.638C35.9775 205.638 36.01 205.671 36.0098 205.736L36.0025 208.568C36.0023 208.633 35.9697 208.666 35.9046 208.665L34.7449 208.663C33.8091 208.661 32.9551 208.44 32.1832 207.999C31.4193 207.55 30.8064 206.958 30.3445 206.225C29.8906 205.492 29.6649 204.665 29.6673 203.746Z" fill="white"/>
<path d="M30.6782 219.507C30.5294 218.633 30.6181 217.797 30.9443 216.999C31.2718 216.209 31.7726 215.54 32.4464 214.992C33.1297 214.451 33.9232 214.121 34.8269 214.002L42.6853 212.99C43.6051 212.869 44.4696 212.98 45.279 213.325C46.095 213.66 46.7876 214.168 47.357 214.847C47.9345 215.526 48.2969 216.298 48.4444 217.165C48.5973 218.063 48.5127 218.899 48.1904 219.671C47.8696 220.452 47.3708 221.108 46.6942 221.64C46.027 222.179 45.2376 222.509 44.3259 222.629L36.4756 223.689C35.572 223.808 34.7081 223.701 33.884 223.366C33.0505 223.025 32.3457 222.519 31.7697 221.849C31.1936 221.178 30.8298 220.398 30.6782 219.507ZM33.6675 219.113C33.7521 219.61 34.0276 220.017 34.4938 220.333C34.9681 220.648 35.4594 220.772 35.9677 220.705L43.818 219.645C44.3666 219.573 44.8012 219.339 45.1217 218.944C45.4421 218.549 45.5573 218.087 45.4672 217.557C45.3812 217.052 45.1219 216.643 44.6893 216.331C44.2567 216.019 43.758 215.9 43.1933 215.975L35.3389 217.01C34.7983 217.081 34.3611 217.324 34.0272 217.737C33.7014 218.149 33.5815 218.608 33.6675 219.113Z" fill="white"/>
<path d="M34.4569 234.855L32.9495 230.635C32.9226 230.558 32.9483 230.509 33.0269 230.488L49.6165 226.027C49.6793 226.01 49.7215 226.032 49.743 226.093L51.3151 230.498C51.646 231.367 51.7194 232.214 51.5355 233.037C51.3543 233.869 50.9687 234.596 50.3788 235.219C49.7994 235.848 49.066 236.283 48.1787 236.524L41.2525 238.408C40.3258 238.66 39.4009 238.672 38.4777 238.443C37.5596 238.205 36.7435 237.779 36.0293 237.166C35.3229 236.55 34.7988 235.78 34.4569 234.855ZM48.4292 231.283L47.8275 229.642L36.8882 232.592L37.4017 234.055C37.6066 234.638 37.9872 235.073 38.5436 235.359C39.0999 235.645 39.6687 235.709 40.2498 235.551L47.1995 233.661C47.71 233.523 48.089 233.218 48.3365 232.747C48.5919 232.273 48.6228 231.786 48.4292 231.283Z" fill="white"/>
<path d="M42.1682 252.885L38.3216 245.778C38.2906 245.721 38.3126 245.676 38.3876 245.645L54.2385 239.025C54.2985 239 54.344 239.016 54.375 239.073L58.1984 246.137C58.2294 246.194 58.2074 246.238 58.1323 246.27L55.5544 247.351C55.4944 247.376 55.4488 247.36 55.4178 247.303L52.9774 242.794L49.375 244.304L51.8155 248.813C51.8465 248.87 51.8319 248.912 51.7719 248.937L49.1718 250.053C49.1117 250.079 49.0662 250.062 49.0352 250.005L46.5832 245.475L42.553 247.165L45.0051 251.695C45.0361 251.752 45.014 251.797 44.939 251.828L42.3047 252.933C42.2447 252.958 42.1992 252.942 42.1682 252.885Z" fill="white"/>
<path d="M54.0266 270.884C53.4244 270.232 53.0544 269.499 52.9166 268.684C52.7843 267.875 52.8739 267.086 53.1853 266.316C53.5089 265.548 54.0411 264.899 54.7821 264.368L55.7149 263.7C55.7877 263.648 55.8517 263.651 55.907 263.711L57.8131 265.773C57.8573 265.82 57.843 265.87 57.7702 265.923L56.8374 266.591C56.3941 266.908 56.1347 267.318 56.0591 267.819C55.9902 268.315 56.1297 268.751 56.4778 269.128C56.8314 269.51 57.2946 269.72 57.8674 269.756C58.4468 269.788 58.9515 269.65 59.3816 269.342C59.8777 268.987 60.0404 268.384 59.8694 267.533C59.8472 267.39 59.8106 267.207 59.7595 266.986C59.7206 266.765 59.6674 266.505 59.5997 266.206C59.532 265.907 59.4666 265.616 59.4033 265.334C59.3467 265.047 59.289 264.77 59.2302 264.504C59.0481 263.522 59.1326 262.632 59.4837 261.835C59.8469 261.038 60.4387 260.346 61.2591 259.758C62.0133 259.218 62.8494 258.897 63.7675 258.796C64.6789 258.699 65.5586 258.794 66.4064 259.081C67.2665 259.369 67.9893 259.829 68.5749 260.463C69.1771 261.114 69.551 261.839 69.6965 262.639C69.8354 263.443 69.753 264.223 69.4493 264.977C69.1511 265.736 68.6282 266.384 67.8806 266.92L66.2134 268.114C66.1605 268.152 66.1119 268.147 66.0677 268.099L64.1617 266.038C64.1175 265.99 64.1218 265.947 64.1748 265.909L65.8254 264.697C66.3017 264.356 66.5644 263.944 66.6135 263.462C66.6626 262.98 66.5159 262.553 66.1734 262.183C65.8253 261.806 65.3682 261.598 64.802 261.556C64.2358 261.515 63.7344 261.65 63.2978 261.963C62.8545 262.281 62.5613 262.63 62.4183 263.01C62.2808 263.397 62.2864 263.914 62.4351 264.563C62.4528 264.629 62.4888 264.787 62.5432 265.036C62.5976 265.286 62.6553 265.562 62.7163 265.866C62.7895 266.171 62.8533 266.448 62.9077 266.697C62.9687 266.942 63.0058 267.089 63.0191 267.139C63.2055 268.019 63.1872 268.831 62.964 269.577C62.7464 270.329 62.2373 270.992 61.4368 271.565C60.6628 272.12 59.8189 272.456 58.9053 272.574C57.9862 272.686 57.0966 272.598 56.2366 272.31C55.3765 272.022 54.6399 271.547 54.0266 270.884Z" fill="white"/>
<path d="M64.2956 281.511L62.072 279.757C62.0209 279.717 62.0243 279.668 62.0824 279.611L74.3742 267.607C74.4207 267.561 74.4695 267.558 74.5206 267.599L76.9167 269.489C76.9678 269.529 76.9893 269.587 76.9812 269.663L76.4221 273.386L80.5562 272.483C80.641 272.467 80.7121 272.482 80.7697 272.528L83.1754 274.425C83.2329 274.47 83.2384 274.516 83.1919 274.561L70.9768 286.627C70.9187 286.684 70.8642 286.692 70.813 286.652L68.5894 284.898C68.5383 284.858 68.5418 284.809 68.5998 284.752L77.6815 275.798L72.9037 276.842L73.5794 272.563L64.4594 281.486C64.4013 281.543 64.3467 281.552 64.2956 281.511Z" fill="white"/>
<path d="M76.613 291.377L89.5116 279.104C89.5644 279.06 89.619 279.054 89.6755 279.087L92.8219 280.888C92.8784 280.92 92.8944 280.967 92.8698 281.027L85.2469 296.32C85.2056 296.389 85.1532 296.406 85.0896 296.369L82.6848 294.993C82.6142 294.952 82.5995 294.897 82.6408 294.828L83.496 293.222L80.5404 291.53L79.2191 292.869C79.1636 292.93 79.1041 292.943 79.0406 292.906L76.6252 291.523C76.5687 291.491 76.5646 291.442 76.613 291.377ZM87.9323 284.669L88.3565 283.85L87.7098 284.541L82.5636 289.628L84.6505 290.823L87.9323 284.669Z" fill="white"/>
<path d="M93.9443 301.29L91.317 300.233C91.2566 300.209 91.2451 300.16 91.2826 300.088L99.2438 284.864C99.2738 284.806 99.319 284.789 99.3794 284.814L104.068 286.7C104.906 287.037 105.575 287.542 106.074 288.214C106.574 288.887 106.861 289.635 106.935 290.46C107.016 291.287 106.841 292.116 106.41 292.946C106.129 293.488 105.787 293.944 105.384 294.315C104.982 294.686 104.585 294.976 104.193 295.185C103.809 295.397 103.485 295.537 103.222 295.606C103.598 296.831 103.475 298.043 102.853 299.242L100.512 303.801C100.475 303.874 100.418 303.895 100.343 303.864L97.7155 302.807C97.6551 302.783 97.6361 302.749 97.6587 302.706L100.044 298.112C100.322 297.578 100.365 297.037 100.175 296.489C99.9853 295.941 99.6034 295.551 99.0296 295.321L97.5007 294.706L94.0912 301.218C94.0537 301.29 94.0047 301.314 93.9443 301.29ZM102.69 289.354L100.696 288.552L98.8848 292.041L100.878 292.842C101.354 293.034 101.865 293.034 102.411 292.844C102.965 292.656 103.369 292.317 103.624 291.826C103.868 291.356 103.897 290.879 103.711 290.394C103.528 289.901 103.188 289.555 102.69 289.354Z" fill="white"/>
<path d="M113.936 308.567L111.205 307.866C111.134 307.847 111.111 307.8 111.137 307.723L115.622 294.189L112.477 293.381C112.398 293.361 112.372 293.312 112.397 293.235L113.3 290.587C113.321 290.526 113.363 290.503 113.426 290.519L122.624 292.881C122.711 292.903 122.744 292.945 122.724 293.007L121.844 295.66C121.819 295.738 121.774 295.768 121.711 295.752L118.531 294.935L114.069 308.475C114.044 308.553 113.999 308.583 113.936 308.567Z" fill="white"/>
<path d="M132.493 312.286L124.481 311.235C124.416 311.227 124.391 311.183 124.404 311.102L127.296 294.171C127.307 294.107 127.345 294.079 127.409 294.088L135.373 295.132C135.438 295.141 135.463 295.185 135.45 295.265L134.983 298.022C134.972 298.086 134.934 298.114 134.87 298.105L129.786 297.438L129.134 301.29L134.218 301.957C134.282 301.965 134.309 302.001 134.298 302.066L133.849 304.861C133.839 304.925 133.801 304.953 133.736 304.945L128.629 304.275L127.899 308.583L133.007 309.253C133.071 309.262 133.097 309.306 133.083 309.386L132.606 312.203C132.595 312.267 132.558 312.295 132.493 312.286Z" fill="white"/>
<path d="M143.975 313H141.143C141.078 313 141.045 312.959 141.045 312.877L141.094 295.702C141.094 295.637 141.127 295.604 141.192 295.604H146.246C147.149 295.604 147.979 295.824 148.736 296.264C149.493 296.703 150.095 297.293 150.542 298.034C150.998 298.774 151.226 299.612 151.226 300.548C151.226 301.159 151.132 301.712 150.945 302.208C150.758 302.705 150.538 303.124 150.286 303.466C150.042 303.808 149.818 304.06 149.615 304.223C150.518 305.224 150.97 306.4 150.97 307.75L150.994 312.877C150.994 312.959 150.953 313 150.872 313H148.04C147.975 313 147.942 312.975 147.942 312.926V307.75C147.942 307.148 147.731 306.627 147.308 306.188C146.884 305.749 146.364 305.529 145.745 305.529H144.097L144.073 312.877C144.073 312.959 144.04 313 143.975 313ZM146.246 298.595H144.097V302.526H146.246C146.758 302.526 147.214 302.335 147.613 301.952C148.02 301.57 148.223 301.102 148.223 300.548C148.223 300.019 148.028 299.564 147.637 299.181C147.247 298.791 146.783 298.595 146.246 298.595Z" fill="white"/>
<path d="M161.145 315.829L160.933 314.294C161.346 314.25 161.676 314.055 161.924 313.709C162.172 313.364 162.267 312.977 162.208 312.55L160.812 312.699C160.747 312.706 160.71 312.677 160.701 312.613L160.318 309.831C160.309 309.767 160.337 309.731 160.402 309.724L163.218 309.424C163.282 309.417 163.319 309.445 163.328 309.51L163.725 312.388C163.805 312.968 163.736 313.512 163.519 314.017C163.301 314.523 162.985 314.938 162.569 315.26C162.154 315.583 161.679 315.772 161.145 315.829Z" fill="white"/>
<path d="M186.648 307.715C185.785 307.98 184.911 308.01 184.028 307.806C183.152 307.599 182.363 307.205 181.662 306.622C180.965 306.03 180.443 305.295 180.095 304.417L177.249 297.156C176.907 296.294 176.801 295.452 176.93 294.632C177.056 293.804 177.39 293.07 177.93 292.429C178.475 291.779 179.183 291.32 180.055 291.053C180.942 290.781 181.814 290.747 182.671 290.951C183.536 291.152 184.315 291.545 185.009 292.13C185.708 292.705 186.229 293.428 186.574 294.298L186.996 295.365C187.02 295.425 187.001 295.465 186.938 295.484L184.254 296.307C184.192 296.326 184.149 296.306 184.125 296.245L183.703 295.178C183.499 294.663 183.153 294.273 182.664 294.007C182.174 293.742 181.673 293.687 181.16 293.845C180.592 294.019 180.231 294.342 180.077 294.813C179.923 295.284 179.945 295.77 180.143 296.269L183.013 303.522C183.238 304.09 183.593 304.503 184.079 304.761C184.562 305.012 185.049 305.062 185.539 304.912C186.052 304.754 186.402 304.426 186.589 303.928C186.773 303.422 186.767 302.923 186.573 302.431L186.146 301.353C186.122 301.292 186.141 301.252 186.203 301.233L188.911 300.403C188.973 300.384 189.016 300.405 189.04 300.466L189.467 301.544C189.811 302.414 189.916 303.273 189.78 304.121C189.634 304.963 189.296 305.707 188.766 306.353C188.233 306.992 187.527 307.446 186.648 307.715Z" fill="white"/>
<path d="M203.556 301.059C202.752 301.433 201.893 301.582 200.979 301.507C200.073 301.429 199.219 301.161 198.416 300.705C197.617 300.238 196.982 299.613 196.513 298.832L192.457 292.029C191.98 291.234 191.754 290.424 191.778 289.601C191.791 288.773 192.022 288.01 192.471 287.311C192.915 286.604 193.536 286.066 194.332 285.695C195.159 285.311 196.016 285.158 196.903 285.236C197.797 285.311 198.639 285.58 199.427 286.044C200.218 286.497 200.85 287.117 201.323 287.906L205.423 294.688C205.892 295.469 206.123 296.277 206.114 297.111C206.101 297.956 205.877 298.73 205.44 299.433C205.003 300.136 204.375 300.678 203.556 301.059ZM202.004 298.474C202.462 298.261 202.755 297.901 202.885 297.394C203.011 296.881 202.942 296.404 202.678 295.965L198.578 289.183C198.294 288.708 197.894 288.381 197.38 288.2C196.866 288.02 196.365 288.043 195.878 288.27C195.413 288.486 195.111 288.832 194.972 289.307C194.832 289.782 194.909 290.264 195.202 290.753L199.28 297.545C199.561 298.012 199.97 298.34 200.507 298.527C201.04 298.708 201.539 298.69 202.004 298.474Z" fill="white"/>
<path d="M218.81 292.013L215.072 294.477C215.004 294.521 214.943 294.512 214.891 294.45L203.879 281.277C203.837 281.227 203.843 281.185 203.898 281.149L207.8 278.579C208.562 278.054 209.4 277.758 210.315 277.692C211.238 277.622 212.132 277.757 213 278.098C213.869 278.429 214.599 278.946 215.191 279.65L219.81 285.144C220.428 285.879 220.799 286.678 220.924 287.542C221.036 288.404 220.917 289.228 220.566 290.016C220.21 290.798 219.625 291.463 218.81 292.013ZM209.724 280.868L208.278 281.839L215.547 290.523L216.846 289.677C217.364 289.34 217.662 288.89 217.739 288.329C217.816 287.768 217.661 287.257 217.273 286.796L212.638 281.284C212.298 280.879 211.838 280.633 211.26 280.548C210.676 280.456 210.164 280.562 209.724 280.868Z" fill="white"/>
<path d="M235.224 278.902L229.14 284.221C229.091 284.264 229.036 284.258 228.975 284.204L216.139 272.797C216.09 272.754 216.09 272.711 216.139 272.668L222.187 267.382C222.236 267.339 222.291 267.344 222.351 267.398L224.444 269.252C224.492 269.296 224.492 269.339 224.443 269.381L220.583 272.756L223.507 275.347L227.367 271.972C227.416 271.929 227.465 271.929 227.513 271.973L229.651 273.835C229.7 273.878 229.7 273.921 229.651 273.964L225.772 277.354L229.043 280.253L232.922 276.862C232.971 276.819 233.025 276.825 233.086 276.879L235.224 278.773C235.273 278.817 235.273 278.86 235.224 278.902Z" fill="white"/>
<path d="M248.691 262.773L247.093 265.081C247.046 265.148 246.987 265.162 246.916 265.124L231.807 256.966C231.75 256.936 231.74 256.893 231.777 256.84L234.515 252.885C235.385 251.628 236.486 250.855 237.815 250.568C239.142 250.271 240.512 250.501 241.925 251.258C242.958 251.812 243.726 252.486 244.229 253.279C244.721 254.074 244.962 254.892 244.951 255.73C244.941 256.569 244.686 257.349 244.186 258.072L243.102 259.638L248.653 262.615C248.724 262.653 248.737 262.706 248.691 262.773ZM237.129 254.287L236.066 255.865L240.434 258.207L241.518 256.641C241.819 256.206 241.858 255.709 241.636 255.149C241.406 254.586 240.933 254.112 240.216 253.727C239.642 253.42 239.073 253.312 238.508 253.403C237.936 253.491 237.476 253.786 237.129 254.287Z" fill="white"/>
<path d="M256.976 248.675L255.768 251.237C255.74 251.295 255.688 251.311 255.612 251.283L239.499 245.348C239.438 245.325 239.422 245.285 239.449 245.226L241.604 240.655C241.989 239.837 242.55 239.162 243.285 238.628C244.02 238.094 244.831 237.752 245.718 237.601C246.608 237.443 247.492 237.524 248.371 237.845C248.945 238.055 249.425 238.329 249.811 238.669C250.198 239.008 250.498 239.351 250.711 239.696C250.928 240.034 251.07 240.323 251.136 240.563C252.461 240.089 253.758 240.084 255.027 240.547L259.854 242.284C259.93 242.312 259.951 242.363 259.916 242.436L258.709 244.998C258.681 245.057 258.644 245.078 258.598 245.061L253.737 243.286C253.171 243.079 252.592 243.092 251.998 243.324C251.405 243.556 250.977 243.952 250.713 244.511L250.01 246.002L256.903 248.545C256.979 248.573 257.003 248.616 256.976 248.675ZM244.413 241.68L243.497 243.624L247.19 244.972L248.106 243.029C248.324 242.565 248.339 242.087 248.15 241.595C247.964 241.096 247.611 240.751 247.091 240.561C246.594 240.38 246.083 240.4 245.557 240.623C245.024 240.842 244.642 241.194 244.413 241.68Z" fill="white"/>
<path d="M263.158 232.722L262.301 235.421C262.276 235.499 262.225 235.528 262.145 235.508L245.475 231.383C245.411 231.368 245.39 231.329 245.409 231.267L246.259 228.591C246.279 228.529 246.32 228.505 246.383 228.521L263.069 232.6C263.148 232.619 263.178 232.66 263.158 232.722Z" fill="white"/>
<path d="M265.201 224.513L264.735 227.307C264.725 227.371 264.679 227.398 264.598 227.387L247.572 225.139C247.508 225.131 247.481 225.095 247.492 225.031L247.993 222.02C248.004 221.956 248.046 221.904 248.118 221.864L251.762 220.035L248.867 217.373C248.81 217.317 248.788 217.252 248.8 217.18L249.304 214.158C249.316 214.085 249.354 214.054 249.419 214.062L266.461 216.213C266.541 216.224 266.576 216.261 266.566 216.325L266.1 219.119C266.089 219.183 266.044 219.21 265.963 219.199L253.308 217.59L256.653 220.666L252.449 222.743L265.096 224.401C265.177 224.412 265.212 224.449 265.201 224.513Z" fill="white"/>
<path d="M267.025 201.535L267.101 209.616C267.102 209.681 267.061 209.714 266.98 209.715L249.805 209.816C249.74 209.816 249.707 209.784 249.706 209.719L249.631 201.687C249.63 201.622 249.67 201.589 249.752 201.588L252.547 201.568C252.612 201.568 252.645 201.6 252.646 201.665L252.694 206.792L256.6 206.763L256.552 201.636C256.551 201.571 256.583 201.539 256.649 201.538L259.48 201.493C259.545 201.492 259.578 201.525 259.579 201.59L259.627 206.741L263.997 206.709L263.949 201.558C263.948 201.493 263.989 201.46 264.07 201.459L266.926 201.438C266.991 201.438 267.024 201.47 267.025 201.535Z" fill="white"/>
<line x1="114" y1="160" x2="114" y2="212" stroke="white" stroke-width="4"/>
<line x1="108" y1="171" x2="108" y2="224" stroke="white" stroke-width="4"/>
<line x1="101" y1="172" x2="101" y2="230" stroke="white" stroke-width="4"/>
<line y1="-2" x2="51" y2="-2" transform="matrix(0 1 1 0 185 160)" stroke="white" stroke-width="4"/>
<line x1="189" y1="171" x2="189" y2="224" stroke="white" stroke-width="4"/>
<line x1="196" y1="172" x2="196" y2="230" stroke="white" stroke-width="4"/>
<path d="M113 210C128.401 211.157 135.89 212.697 149 220" stroke="white" stroke-width="4"/>
<path d="M184.657 209.365C169.257 210.522 161.767 212.062 148.657 219.365" stroke="white" stroke-width="4"/>
<path d="M107 218.386C122.789 215.322 130.644 215.148 145.228 221.059" stroke="white" stroke-width="4"/>
<path d="M187.465 218.386C171.676 215.322 163.821 215.148 149.237 221.059" stroke="white" stroke-width="4"/>
<line x1="107" y1="222" x2="190" y2="222" stroke="white" stroke-width="4"/>
<line x1="100" y1="228" x2="197" y2="228" stroke="white" stroke-width="4"/>
<line x1="99" y1="173" x2="108" y2="173" stroke="white" stroke-width="4"/>
<line x1="189" y1="173" x2="198" y2="173" stroke="white" stroke-width="4"/>
<path d="M106.802 173.401C107.536 172.263 112.505 168.453 114.802 167.401" stroke="white" stroke-width="4"/>
<path d="M191 174.302C190.265 173.164 185.297 169.355 183 168.302" stroke="white" stroke-width="4"/>
<path d="M113.093 162.062C122.566 162.21 128.074 163.301 135.592 165.092" stroke="white" stroke-width="4"/>
<path d="M183.595 162.062C174.121 162.21 168.613 163.301 161.096 165.092" stroke="white" stroke-width="4"/>
<path d="M145.512 246.604C145.838 250.247 151.162 250.248 151.488 246.604L156.708 188.267C156.865 186.512 155.482 185 153.72 185H143.28C141.518 185 140.135 186.512 140.292 188.267L145.512 246.604Z" fill="white"/>
<path d="M148.5 245L158 185H139L148.5 245Z" fill="white"/>
<rect x="137" y="180" width="23" height="4" fill="white"/>
<rect x="147" y="178" width="3" height="8" fill="white"/>
<path d="M163.021 171C159.708 179.309 158.019 179 148.521 179C139.022 179 138.019 179 134.02 171C128 156 126 158 148.521 158C171.041 158.001 169 156 163.021 171Z" fill="white"/>
<rect x="127" y="149" width="43" height="7" fill="white"/>
<path d="M130 157H167V160.1C167 160.597 166.597 161 166.1 161H130.9C130.403 161 130 160.597 130 160.1V157Z" fill="white"/>
<path fill-rule="evenodd" clip-rule="evenodd" d="M153 105.031C153 102.554 151.484 92.3874 149.817 86.2765C149.829 86.0343 149.893 86.0332 149.958 86.032C149.976 86.0317 149.995 86.0314 150.012 86.0257C150.621 85.8227 151.726 86.8587 152.756 87.8243C152.908 87.9671 153.059 88.1084 153.206 88.244C158.752 95.0018 170.318 110.505 169.511 125.031C169.015 133.971 165.194 139.709 161.099 143.501L161.099 143.501C161.062 143.469 160.849 143.642 160.491 143.932C159.204 144.974 156.049 147.528 152.511 147.528C154.298 145.964 155.425 143.195 155.974 140.836C156.809 137.834 156.397 134.379 155.011 132.029C150.72 124.754 150.846 125.852 151.225 129.165C151.68 133.14 152.5 140.303 146.501 140.031C141.055 139.783 141.079 134.76 141.088 132.873C141.09 132.448 141.091 132.182 141.029 132.166C140.925 132.14 140.644 132.809 139.894 134.596C139.775 134.879 139.644 135.19 139.501 135.531C138.378 138.198 139.044 140.767 140.526 142.797C141.129 143.799 141.855 144.823 142.5 145.733C143.16 146.665 143.736 147.478 144.01 148.027C143.181 148.005 138.992 147.664 133.924 143.951C130.128 140.633 127.001 136.509 127 131.53C126.998 120.956 135.556 110.668 139.96 105.403C141.478 103.791 143.687 101.734 144.011 103.028C142.868 105.883 142.379 107.108 142.169 108.378C142.036 109.182 142.015 110.004 142.012 111.269C142.003 111.659 142.002 112.072 142.001 112.518V112.518V112.518L142.001 112.53C142.001 115.03 143 119.53 145.5 119.53C147.5 119.53 153 117.026 153 105.031Z" fill="white"/>
</svg>
